<svg width="302" height="296" viewBox="0 0 302 296" fill="none" xmlns="http://www.w3.org/2000/svg">
<path d="M150.737 263.053C213.639 263.053 264.631 213.09 264.631 151.456C264.631 89.8232 213.639 39.8596 150.737 39.8596C87.8342 39.8596 36.8418 89.8232 36.8418 151.456C36.8418 213.09 87.8342 263.053 150.737 263.053Z" stroke="#001A18" stroke-miterlimit="10"/>
<path d="M150.737 263.053C213.639 263.053 264.631 213.09 264.631 151.456C264.631 89.8232 213.639 39.8596 150.737 39.8596C87.8342 39.8596 36.8418 89.8232 36.8418 151.456C36.8418 213.09 87.8342 263.053 150.737 263.053Z" stroke="#001A18" stroke-miterlimit="10"/>
<path d="M150.737 263.053C213.639 263.053 264.631 213.09 264.631 151.456C264.631 89.8232 213.639 39.8596 150.737 39.8596C87.8342 39.8596 36.8418 89.8232 36.8418 151.456C36.8418 213.09 87.8342 263.053 150.737 263.053Z" stroke="#001A18" stroke-miterlimit="10"/>
<path d="M150.737 263.053C213.639 263.053 264.631 213.09 264.631 151.456C264.631 89.8232 213.639 39.8596 150.737 39.8596C87.8342 39.8596 36.8418 89.8232 36.8418 151.456C36.8418 213.09 87.8342 263.053 150.737 263.053Z" stroke="#001A18" stroke-miterlimit="10"/>
<path d="M150.738 191.477C173.296 191.477 191.583 173.559 191.583 151.456C191.583 129.354 173.296 111.436 150.738 111.436C128.18 111.436 109.893 129.354 109.893 151.456C109.893 173.559 128.18 191.477 150.738 191.477Z" stroke="#001A18" stroke-miterlimit="10"/>
<path d="M150.736 186.859C170.691 186.859 186.868 171.009 186.868 151.456C186.868 131.904 170.691 116.053 150.736 116.053C130.78 116.053 114.604 131.904 114.604 151.456C114.604 171.009 130.78 186.859 150.736 186.859Z" stroke="#001A18" stroke-miterlimit="10"/>
<path d="M150.737 154.535C152.472 154.535 153.879 153.156 153.879 151.456C153.879 149.756 152.472 148.377 150.737 148.377C149.001 148.377 147.595 149.756 147.595 151.456C147.595 153.156 149.001 154.535 150.737 154.535Z" fill="#001A18" stroke="#001A18" stroke-miterlimit="10"/>
<path d="M267.459 43.2466C257.562 42.9388 247.979 49.4037 244.68 58.4854C241.381 67.567 244.995 78.4958 252.849 84.1911C254.734 85.5764 257.248 86.9618 257.405 89.4246C257.405 90.0403 257.405 90.656 257.405 91.2717C255.834 102.354 254.263 113.283 252.535 124.366C250.964 135.449 248.608 147.763 239.339 154.074C238.239 152.842 236.04 153.458 234.783 154.689C233.526 155.921 233.055 157.46 231.955 158.845C230.856 160.231 228.971 161 227.557 160.077C227.243 159.923 227.086 159.615 226.771 159.615C226.3 159.615 225.986 159.923 225.672 160.231C221.901 163.925 218.131 167.619 214.204 171.313C210.119 175.316 205.72 179.626 204.307 185.167C203.835 186.706 203.835 188.399 204.307 189.939C204.778 191.478 206.506 192.555 208.234 192.401C209.019 192.401 209.648 191.94 210.433 191.632C212.947 191.016 215.303 192.863 216.56 195.018C217.817 197.173 218.602 199.636 220.33 201.329C222.058 203.022 225.357 203.792 226.928 201.791" stroke="#001A18" stroke-miterlimit="10"/>
<path d="M223.628 196.403C220.8 194.71 218.601 192.093 217.187 189.015C217.03 188.553 216.873 188.091 216.873 187.475C216.873 186.09 218.287 185.32 219.544 184.705C223.785 182.396 227.87 179.933 231.64 177.008C232.897 176.085 233.997 175.161 234.625 173.93C235.253 172.698 235.253 170.851 234.154 169.928" stroke="#001A18" stroke-miterlimit="10"/>
<path d="M238.238 166.85C241.066 165.464 243.422 163.463 245.308 161C245.779 160.385 246.093 159.461 245.465 159.153C245.308 159.153 244.993 159.153 244.836 158.845C244.051 158.537 243.894 157.306 244.365 156.69C244.836 156.075 245.622 155.613 246.407 155.151C253.005 151.765 257.247 144.992 259.289 137.911C261.331 130.831 261.489 123.442 261.803 116.054C262.274 108.203 262.902 100.199 263.531 92.3491C263.531 91.2716 263.845 90.0402 264.63 89.2705C265.259 88.8088 266.044 88.5009 266.673 88.5009C270.757 87.8852 275.313 88.9627 279.083 87.2695C280.654 86.6538 281.911 85.4224 283.168 84.3449C284.739 82.8056 286.31 81.2664 287.567 79.5732C290.866 74.8014 291.651 68.4905 289.609 63.103" stroke="#001A18" stroke-miterlimit="10"/>
<path d="M287.882 57.2535C287.41 54.175 285.839 51.2503 283.483 49.0954C282.698 48.4797 281.912 47.5561 282.226 46.7865C282.226 46.4786 282.54 46.3247 282.855 46.0168C284.426 44.9394 286.468 45.4011 288.353 45.2472C288.824 45.2472 289.453 45.2472 289.767 44.7854C290.081 44.4776 290.395 44.0158 290.552 43.7079C292.123 40.0137 293.223 36.1655 293.851 32.3174" stroke="#001A18" stroke-miterlimit="10"/>
<path d="M267.146 43.2467C267.931 43.2467 268.716 43.2467 269.345 43.0927C269.816 42.9388 270.287 42.631 270.444 42.0153C270.444 41.7074 270.444 41.3995 270.444 40.9378C270.287 40.3221 269.816 39.8603 269.345 39.5524C269.031 39.3985 268.874 39.2446 268.559 39.0906C267.774 38.321 267.931 37.0896 268.245 36.0121C268.716 34.4729 269.345 33.0875 269.973 31.7022C270.445 30.6247 271.073 29.3933 271.701 28.4697C272.33 27.5462 273.429 26.6226 274.686 26.3147C276.257 25.853 277.828 26.3147 279.399 26.6226C281.441 27.0844 283.326 27.854 285.212 28.9315" stroke="#001A18" stroke-miterlimit="10"/>
<path d="M98.1104 171.005C99.21 178.548 101.409 186.398 106.751 191.939C111.464 196.865 117.904 199.789 124.188 202.56" stroke="#001A18" stroke-miterlimit="10"/>
<path d="M89.9395 182.858C92.1388 192.555 98.4227 201.021 106.12 207.332C113.818 213.643 123.244 217.953 132.67 221.493" stroke="#001A18" stroke-miterlimit="10"/>
<path d="M80.2002 190.708C83.4992 203.33 92.6108 213.797 103.45 221.34C114.29 228.882 127.015 233.346 139.74 236.732" stroke="#001A18" stroke-miterlimit="10"/>
<path d="M46.6266 63.3844C47.2458 63.8714 47.6834 64.4681 47.9394 65.1747C48.1902 65.8773 48.214 66.658 48.0106 67.5168C47.8021 68.3716 47.3236 69.275 46.575 70.2268C46.0115 70.9432 45.4773 71.517 44.9725 71.9482C44.4677 72.3795 43.9278 72.75 43.3528 73.0598L41.3494 71.4841C41.9993 71.1421 42.634 70.7302 43.2533 70.2482C43.8675 69.7621 44.3818 69.2556 44.7964 68.7285C45.2592 68.14 45.4882 67.6119 45.4833 67.1443C45.4733 66.6725 45.2764 66.2858 44.8926 65.9839C44.6214 65.7706 44.3373 65.6631 44.0404 65.6615C43.7475 65.6548 43.3853 65.7468 42.9537 65.9374C42.5222 66.1281 41.9713 66.4072 41.3013 66.7747C40.6122 67.177 39.9613 67.4726 39.3487 67.6617C38.7362 67.8509 38.1412 67.8965 37.5639 67.7985C36.9814 67.6966 36.3908 67.4102 35.7921 66.9393C35.1473 66.4321 34.7332 65.8372 34.5496 65.1544C34.3649 64.4625 34.3929 63.7266 34.6335 62.9468C34.873 62.1578 35.3027 61.3693 35.9225 60.5812C36.4618 59.8955 37.0199 59.3281 37.5968 58.879C38.1686 58.4258 38.7287 58.0506 39.2774 57.7532L40.4435 59.888C39.8949 60.1853 39.3806 60.518 38.9007 60.886C38.4196 61.2448 38.0081 61.6417 37.666 62.0767C37.2715 62.5782 37.0852 63.0363 37.1069 63.451C37.1236 63.8616 37.2982 64.1977 37.6308 64.4593C37.8969 64.6686 38.181 64.7761 38.483 64.7817C38.785 64.7874 39.1564 64.6943 39.5971 64.5026C40.0367 64.3017 40.5971 64.0052 41.2781 63.6132C41.9775 63.219 42.6263 62.9259 43.2246 62.7338C43.8229 62.5418 44.3965 62.4918 44.9453 62.5838C45.493 62.6667 46.0535 62.9336 46.6266 63.3844ZM47.8487 51.9939C48.7619 51.0385 49.825 50.6046 51.038 50.6924C52.2556 50.7754 53.5162 51.4399 54.8198 52.686C56.1376 53.9456 56.8543 55.198 56.9699 56.4433C57.0855 57.6886 56.6979 58.7771 55.8072 59.709C55.2269 60.3161 54.6624 60.7041 54.1137 60.8731C53.5647 61.0328 53.0712 61.1015 52.6333 61.0792L52.5523 61.1639C52.7444 61.3115 52.9601 61.4816 53.1993 61.6742C53.4338 61.8623 53.671 62.0711 53.911 62.3005L56.8548 65.1143L54.6956 67.3733L43.5769 56.7457L45.3381 54.9032L46.6374 55.5507L46.7386 55.4448C46.6394 54.9267 46.6523 54.3762 46.7773 53.7932C46.9068 53.2054 47.2639 52.6057 47.8487 51.9939ZM48.898 54.4153C48.3357 55.0036 48.1047 55.5798 48.2049 56.1439C48.3049 56.6988 48.6868 57.298 49.3506 57.9415L49.5695 58.1507C50.2942 58.8434 50.9598 59.2589 51.5661 59.3972C52.1725 59.5355 52.7748 59.2916 53.3731 58.6657C54.3583 57.635 54.0978 56.3999 52.5918 54.9604C51.1234 53.5569 49.8922 53.3752 48.898 54.4153ZM51.853 42.4052C52.2058 42.0868 52.5825 41.8872 52.9831 41.8063C53.3793 41.7207 53.7672 41.8881 54.1466 42.3086C54.5173 42.7195 54.6442 43.1224 54.5271 43.5174C54.4056 43.9076 54.1685 44.2619 53.8156 44.5803C53.4483 44.9118 53.0667 45.1157 52.671 45.1922C52.2709 45.2639 51.8854 45.0943 51.5147 44.6834C51.1353 44.2629 51.006 43.8621 51.127 43.4811C51.2436 43.0953 51.4856 42.7366 51.853 42.4052ZM53.4981 46.5899L55.8182 44.4964L62.9818 52.4356L60.6617 54.5291L53.4981 46.5899ZM58.5828 36.763L67.9602 48.2696L65.5378 50.2438L56.1603 38.7372L58.5828 36.763ZM81.252 26.7007C82.2995 26.0802 83.2514 25.8796 84.1076 26.0988C84.9662 26.3091 85.7455 27.0052 86.4456 28.1871L89.9943 34.1778L87.3141 35.7655L84.1685 30.4553C83.7504 29.7496 83.3398 29.3118 82.9365 29.142C82.5389 28.969 82.116 29.0152 81.6679 29.2806C81.0462 29.6489 80.7486 30.143 80.7753 30.7628C80.8075 31.3793 81.0825 32.1245 81.6001 32.9983L84.2977 37.5523L81.609 39.145L78.4635 33.8348C78.0587 33.1514 77.6569 32.716 77.2583 32.5284C76.8652 32.3375 76.4446 32.3747 75.9965 32.6402C75.3411 33.0284 75.0473 33.5543 75.115 34.2179C75.185 34.8726 75.5071 35.6845 76.0811 36.6535L78.6095 40.9218L75.9208 42.5145L70.4708 33.3142L72.5209 32.0997L73.6077 33.0337L73.6917 32.9839C73.7015 32.4257 73.8676 31.8885 74.1898 31.3722C74.5177 30.8526 75.0037 30.4021 75.6478 30.0205C76.3312 29.6157 76.9666 29.3982 77.5541 29.368C78.1472 29.3345 78.7036 29.4627 79.2234 29.7525L79.3158 29.6978C79.3472 29.0738 79.533 28.506 79.8731 27.9943C80.2154 27.4737 80.6751 27.0425 81.252 26.7007ZM94.7352 20.2357L97.5982 18.9833L101.884 28.7804L99.6917 29.7393L98.7769 28.6471L98.6159 28.7176C98.5249 29.3543 98.2576 29.9047 97.8139 30.3688C97.3703 30.8329 96.8413 31.1993 96.2269 31.468C95.189 31.922 94.2241 32.0066 93.332 31.7217C92.4374 31.4309 91.7161 30.6592 91.1681 29.4066L88.3738 23.0184L91.2547 21.7581L93.7321 27.4217C94.0322 28.1076 94.3755 28.5757 94.762 28.8258C95.146 29.07 95.5944 29.0799 96.1074 28.8555C96.8888 28.5137 97.2996 28.0072 97.3399 27.3358C97.3802 26.6644 97.176 25.8157 96.7272 24.7898L94.7352 20.2357ZM112.155 21.8916C112.475 22.8624 112.321 23.777 111.692 24.6353C111.067 25.4855 109.945 26.1774 108.325 26.7111C107.484 26.9882 106.732 27.1842 106.071 27.2993C105.41 27.4143 104.76 27.4604 104.122 27.4376L103.334 25.0445C104.021 25.1128 104.75 25.0989 105.52 25.0028C106.291 24.9067 106.969 24.7619 107.557 24.5683C108.299 24.3239 108.813 24.0755 109.101 23.8233C109.392 23.5629 109.494 23.2997 109.406 23.0338C109.345 22.8483 109.211 22.714 109.006 22.6309C108.804 22.5397 108.48 22.4819 108.034 22.4577C107.585 22.4273 106.957 22.4148 106.15 22.4202C104.95 22.4181 103.99 22.2922 103.27 22.0426C102.548 21.7868 102.05 21.2416 101.775 20.4068C101.461 19.4545 101.654 18.5926 102.352 17.8209C103.057 17.0472 104.108 16.4302 105.506 15.9698C106.26 15.7213 106.988 15.5602 107.691 15.4865C108.397 15.4045 109.115 15.3875 109.843 15.4353L109.604 17.6734C108.988 17.6363 108.372 17.6475 107.754 17.7071C107.136 17.7667 106.589 17.8749 106.113 18.0318C105.538 18.2212 105.116 18.4287 104.848 18.6542C104.577 18.8736 104.478 19.0915 104.549 19.3079C104.608 19.4872 104.739 19.6153 104.943 19.6922C105.144 19.7629 105.471 19.8062 105.921 19.8222C106.37 19.832 106.989 19.8373 107.777 19.838C108.984 19.8381 109.944 19.964 110.657 20.2156C111.371 20.4672 111.87 21.0259 112.155 21.8916ZM113.525 9.37231C113.986 9.25456 114.412 9.25305 114.804 9.36778C115.195 9.4762 115.46 9.80479 115.601 10.3535C115.738 10.8897 115.663 11.3054 115.375 11.6006C115.086 11.8895 114.712 12.0929 114.251 12.2106C113.772 12.3332 113.339 12.3364 112.953 12.22C112.566 12.0974 112.303 11.768 112.166 11.2319C112.026 10.6831 112.098 10.2682 112.382 9.9872C112.665 9.69987 113.046 9.49491 113.525 9.37231ZM113.036 13.842L116.063 13.0678L118.713 23.4277L115.685 24.202L113.036 13.842ZM122.289 7.57111L123.446 13.9415C123.51 14.2939 123.569 14.7067 123.621 15.1802C123.673 15.6472 123.707 16.0711 123.723 16.4519L123.81 16.4362C123.915 16.2121 124.062 15.914 124.253 15.5419C124.449 15.1623 124.623 14.8493 124.777 14.6031L127.143 10.908L130.612 10.2781L127.265 15.5112L132.792 20.7506L129.236 21.3961L125.458 17.8045L124.36 18.9764L124.941 22.176L121.857 22.7361L119.205 8.13117L122.289 7.57111Z" fill="#061918"/>
</svg>
